<?xml version="1.0" encoding="UTF-8" standalone="no"?>
<!DOCTYPE svg PUBLIC "-//W3C//DTD SVG 1.1//EN" "http://www.w3.org/Graphics/SVG/1.1/DTD/svg11.dtd">
<svg width="100%" height="100%" viewBox="0 0 4500 1000" version="1.1" xmlns="http://www.w3.org/2000/svg" xmlns:xlink="http://www.w3.org/1999/xlink" xml:space="preserve" xmlns:serif="http://www.serif.com/" style="fill-rule:evenodd;clip-rule:evenodd;stroke-linecap:round;stroke-linejoin:round;stroke-miterlimit:1.5;">
    <rect id="Final-Logo" serif:id="Final Logo" x="0" y="-0" width="4500" height="1000" style="fill:none;"/>
    <path d="M653.075,398.757L603.508,398.757C599.817,380.301 593.181,363.207 583.602,347.476C574.022,331.744 562.026,317.99 547.613,306.214C533.2,294.437 516.853,285.297 498.573,278.794C480.293,272.29 460.519,269.038 439.251,269.038C405.151,269.038 374.084,277.915 346.049,295.667C318.013,313.42 295.603,339.478 278.817,373.841C262.031,408.204 253.638,450.257 253.638,500C253.638,550.094 262.031,592.279 278.817,626.554C295.603,660.829 318.013,686.799 346.049,704.464C374.084,722.129 405.151,730.962 439.251,730.962C460.519,730.962 480.293,727.71 498.573,721.206C516.853,714.703 533.2,705.607 547.613,693.918C562.026,682.229 574.022,668.475 583.602,652.656C593.181,636.837 599.817,619.699 603.508,601.243L653.075,601.243C648.681,626.027 640.463,649.097 628.423,670.453C616.383,691.809 601.091,710.484 582.547,726.48C564.004,742.475 542.691,754.954 518.611,763.919C494.53,772.883 468.077,777.365 439.251,777.365C393.902,777.365 353.651,765.984 318.497,743.222C283.343,720.459 255.791,688.337 235.841,646.856C215.891,605.374 205.916,556.422 205.916,500C205.916,443.578 215.891,394.626 235.841,353.144C255.791,311.663 283.343,279.541 318.497,256.778C353.651,234.016 393.902,222.635 439.251,222.635C468.077,222.635 494.53,227.073 518.611,235.95C542.691,244.826 564.004,257.306 582.547,273.389C601.091,289.472 616.383,308.147 628.423,329.415C640.463,350.683 648.681,373.797 653.075,398.757Z" style="fill:rgb(30,41,59);fill-rule:nonzero;"/>
    <path d="M769.083,769.983L769.083,230.017L818.387,230.017L818.387,477.589L1124.75,477.589L1124.75,230.017L1174.06,230.017L1174.06,769.983L1124.75,769.983L1124.75,521.883L818.387,521.883L818.387,769.983L769.083,769.983Z" style="fill:rgb(30,41,59);fill-rule:nonzero;"/>
    <path d="M1318.28,769.983L1266.6,769.983L1463.02,230.017L1515.75,230.017L1712.18,769.983L1660.5,769.983L1491.23,294.086L1487.54,294.086L1318.28,769.983ZM1355.45,563.014L1623.33,563.014L1623.33,607.308L1355.45,607.308L1355.45,563.014Z" style="fill:rgb(30,41,59);fill-rule:nonzero;"/>
    <path d="M2225.25,230.017L2225.25,769.983L2177.26,769.983L1858.24,317.814L1854.02,317.814L1854.02,769.983L1804.72,769.983L1804.72,230.017L1852.44,230.017L2172.52,682.713L2176.74,682.713L2176.74,230.017L2225.25,230.017Z" style="fill:rgb(30,41,59);fill-rule:nonzero;"/>
    <rect x="3250.17" y="222.635" width="50.652" height="554.73" style="fill:rgb(30,41,59);fill-rule:nonzero;"/>
    <path d="M3448.18,777.365L3448.18,222.635L3769.15,222.635L3769.15,268.14L3498.83,268.14L3498.83,476.977L3743.96,476.977L3743.96,522.482L3498.83,522.482L3498.83,777.365L3448.18,777.365Z" style="fill:rgb(30,41,59);fill-rule:nonzero;"/>
    <path d="M3843.37,222.635L3901.87,222.635L4066.29,485.915L4071.16,485.915L4235.58,222.635L4294.08,222.635L4093.91,537.108L4093.91,777.365L4043.53,777.365L4043.53,537.108L3843.37,222.635Z" style="fill:rgb(30,41,59);fill-rule:nonzero;"/>
    <g>
        <ellipse cx="2741.49" cy="500" rx="429.237" ry="426.771" style="fill:none;stroke:rgb(29,41,58);stroke-width:46px;"/>
        <path d="M2696.01,187.713C2710.87,185.59 2726.05,184.491 2741.49,184.491C2830.45,184.491 2910.91,220.963 2968.55,279.676" style="fill:none;stroke:rgb(29,41,58);stroke-width:46px;"/>
        <path d="M2967.87,721.019C2910.27,779.324 2830.1,815.509 2741.49,815.509C2566.35,815.509 2424.16,674.134 2424.16,500C2424.16,414.312 2458.59,336.557 2514.44,279.676C2533.67,260.084 2555.45,242.968 2579.23,228.858" style="fill:none;stroke:rgb(29,41,58);stroke-width:46px;"/>
        <path d="M3012.77,400.937C3013.48,399.233 3015.15,398.121 3017,398.121C3018.85,398.121 3020.52,399.233 3021.23,400.937L3040.9,448.518C3041.69,450.432 3043,452.089 3044.69,453.304C3046.37,454.52 3048.36,455.247 3050.43,455.404L3102.03,459.304C3103.88,459.444 3105.45,460.679 3106.03,462.431C3106.6,464.183 3106.05,466.106 3104.64,467.299L3065.2,500.606C3063.62,501.945 3062.44,503.696 3061.8,505.663C3061.15,507.63 3061.07,509.736 3061.56,511.746L3073.78,561.738C3074.21,563.528 3073.52,565.404 3072.02,566.487C3070.52,567.57 3068.51,567.646 3066.94,566.679L3022.89,539.683C3021.12,538.597 3019.08,538.022 3017,538.022C3014.92,538.022 3012.88,538.597 3011.11,539.683L2967.06,566.679C2965.49,567.646 2963.48,567.57 2961.98,566.487C2960.48,565.404 2959.79,563.528 2960.22,561.738L2972.44,511.746C2972.93,509.736 2972.85,507.63 2972.2,505.663C2971.56,503.696 2970.38,501.945 2968.8,500.606L2929.36,467.299C2927.95,466.106 2927.4,464.183 2927.97,462.431C2928.55,460.679 2930.13,459.444 2931.97,459.304L2983.57,455.404C2985.64,455.247 2987.63,454.52 2989.32,453.304C2991,452.089 2992.31,450.432 2993.1,448.518L3012.77,400.937Z" style="fill:rgb(29,41,58);"/>
        <path d="M2622.51,134.226C2622.51,134.226 2650.87,368.703 2697.93,515.063C2705.5,538.595 2730.79,551.666 2754.36,544.233C2777.94,536.8 2790.93,511.659 2783.37,488.126C2736.3,341.767 2622.51,134.226 2622.51,134.226Z" style="fill:rgb(29,41,58);"/>
        <ellipse cx="2740.61" cy="500" rx="62.559" ry="62.2" style="fill:rgb(241,245,249);stroke:rgb(29,41,58);stroke-width:46px;"/>
    </g>
</svg>
