<?xml version="1.0" encoding="UTF-8" standalone="no"?>
<!DOCTYPE svg PUBLIC "-//W3C//DTD SVG 1.1//EN" "http://www.w3.org/Graphics/SVG/1.1/DTD/svg11.dtd">
<svg width="100%" height="100%" viewBox="0 0 4500 1000" version="1.1" xmlns="http://www.w3.org/2000/svg" xmlns:xlink="http://www.w3.org/1999/xlink" xml:space="preserve" xmlns:serif="http://www.serif.com/" style="fill-rule:evenodd;clip-rule:evenodd;stroke-linecap:round;stroke-linejoin:round;stroke-miterlimit:1.5;">
    <g transform="matrix(1,0,0,1,-75930,-57776.4)">
        <g id="Final-Logo" serif:id="Final Logo" transform="matrix(2.16157,0,0,0.480348,75930,57147.1)">
            <rect x="0" y="1309.96" width="2081.82" height="2081.82" style="fill:none;"/>
            <g transform="matrix(0.274091,0,0,1.33729,-15764.8,-57876.2)">
                <g transform="matrix(1.08422,0,0,1,-4866.58,0)">
                    <g transform="matrix(1155.81,0,0,1155.81,61113.3,45457)">
                    </g>
                    <text x="57784.2px" y="45457px" style="font-family:'Inter-Light', 'Inter';font-weight:300;font-size:1155.81px;fill:rgb(30,41,59);">CHAN</text>
                </g>
            </g>
            <g transform="matrix(0.281586,0,0,1.37385,-14801.7,-59523)">
                <g transform="matrix(1.08422,0,0,1,-4866.58,0)">
                    <g transform="matrix(1155.81,0,0,1155.81,59510.5,45457)">
                    </g>
                    <text x="57784.2px" y="45457px" style="font-family:'Inter-Light', 'Inter';font-weight:300;font-size:1155.81px;fill:rgb(30,41,59);">IFY</text>
                </g>
            </g>
            <g transform="matrix(0.946577,0,0,1.20104,982.885,-602.111)">
                <g transform="matrix(0.546844,0,0,1.92829,-40778.1,-105757)">
                    <circle cx="75121.3" cy="56120.2" r="383.627" style="fill:none;stroke:rgb(29,41,58);stroke-width:41.23px;"/>
                </g>
                <g transform="matrix(0.404279,0,0,1.42557,-30068.4,-77544.6)">
                    <path d="M75066.4,55740.5C75084.3,55737.9 75102.7,55736.5 75121.3,55736.5C75228.9,55736.5 75326.1,55780.9 75395.8,55852.3" style="fill:none;stroke:rgb(29,41,58);stroke-width:55.77px;"/>
                </g>
                <g transform="matrix(0.404279,0,0,1.42557,-30068.4,-77544.6)">
                    <path d="M75395,56388.9C75325.4,56459.8 75228.5,56503.8 75121.3,56503.8C74909.6,56503.8 74737.7,56331.9 74737.7,56120.2C74737.7,56016 74779.3,55921.4 74846.9,55852.3C74870.1,55828.5 74896.4,55807.6 74925.2,55790.5" style="fill:none;stroke:rgb(29,41,58);stroke-width:55.77px;"/>
                </g>
                <g transform="matrix(0.178504,0,0,0.629441,-4063.96,-6800.67)">
                    <path d="M25198.7,14437.6C25200.6,14433 25205.2,14429.9 25210.2,14429.9C25215.3,14429.9 25219.9,14433 25221.8,14437.6L25275.7,14568.7C25277.8,14573.9 25281.4,14578.5 25286,14581.9C25290.6,14585.2 25296.1,14587.2 25301.8,14587.6L25443,14598.4C25448.1,14598.8 25452.4,14602.2 25454,14607C25455.5,14611.8 25454,14617.1 25450.2,14620.4L25342.2,14712.1C25337.9,14715.8 25334.6,14720.6 25332.9,14726C25331.1,14731.5 25330.9,14737.3 25332.2,14742.8L25365.7,14880.5C25366.9,14885.4 25365,14890.6 25360.9,14893.5C25356.8,14896.5 25351.3,14896.7 25347,14894.1L25226.4,14819.7C25221.5,14816.7 25215.9,14815.1 25210.2,14815.1C25204.5,14815.1 25198.9,14816.7 25194.1,14819.7L25073.5,14894.1C25069.2,14896.7 25063.7,14896.5 25059.6,14893.5C25055.5,14890.6 25053.6,14885.4 25054.8,14880.5L25088.2,14742.8C25089.6,14737.3 25089.3,14731.5 25087.6,14726C25085.8,14720.6 25082.6,14715.8 25078.2,14712.1L24970.3,14620.4C24966.4,14617.1 24964.9,14611.8 24966.5,14607C24968,14602.2 24972.4,14598.8 24977.4,14598.4L25118.7,14587.6C25124.4,14587.2 25129.8,14585.2 25134.4,14581.9C25139,14578.5 25142.6,14573.9 25144.8,14568.7L25198.7,14437.6Z" style="fill:rgb(29,41,58);"/>
                </g>
                <g transform="matrix(0.153617,-0.17178,0.118546,1.30737,-17987.6,-58223.8)">
                    <path d="M75570.4,55860.3C75570.4,55860.3 75434.5,56153.3 75434.5,56347.4C75434.5,56378.6 75495.4,56403.9 75570.4,56403.9C75645.4,56403.9 75706.3,56378.6 75706.3,56347.4C75706.3,56153.3 75570.4,55860.3 75570.4,55860.3Z" style="fill:rgb(29,41,58);"/>
                </g>
                <g transform="matrix(0.0796999,0,0,0.281038,-5686.09,-13313.2)">
                    <circle cx="75121.3" cy="56120.2" r="383.627" style="fill:rgb(241,245,249);stroke:rgb(29,41,58);stroke-width:282.89px;"/>
                </g>
            </g>
        </g>
    </g>
</svg>
