<?xml version="1.0" encoding="UTF-8" standalone="no"?>
<!DOCTYPE svg PUBLIC "-//W3C//DTD SVG 1.1//EN" "http://www.w3.org/Graphics/SVG/1.1/DTD/svg11.dtd">
<svg width="100%" height="100%" viewBox="0 0 2082 2082" version="1.1" xmlns="http://www.w3.org/2000/svg" xmlns:xlink="http://www.w3.org/1999/xlink" xml:space="preserve" xmlns:serif="http://www.serif.com/" style="fill-rule:evenodd;clip-rule:evenodd;stroke-linejoin:round;stroke-miterlimit:2;">
    <g transform="matrix(1,0,0,1,-7482.79,0)">
        <g transform="matrix(1,0,0,1,7482.79,-1309.96)">
            <rect id="Logo" x="0" y="1309.96" width="2081.82" height="2081.82" style="fill:none;"/>
            <g id="Logo1" serif:id="Logo">
                <g transform="matrix(1.13127,0,0,1.13127,-5192.47,1277.06)">
                    <path d="M5093.9,522.149C5083.14,498.455 5077.14,472.222 5077.14,444.697C5077.14,340.949 5162.39,255.551 5266.01,255.302C5358.43,253.885 5449.46,317.628 5510.05,428.551C5570.63,317.641 5661.64,253.899 5754.02,255.301C5857.71,255.552 5942.95,340.95 5942.95,444.697C5942.95,472.222 5936.95,498.455 5926.2,522.149L6053.67,522.149C6078.45,522.149 6098.57,542.272 6098.57,567.057L6098.57,631.581C6098.57,656.366 6078.45,676.489 6053.67,676.489L4966.43,676.489C4941.65,676.489 4921.52,656.366 4921.52,631.581L4921.52,567.057C4921.52,542.272 4941.65,522.149 4966.43,522.149L5093.9,522.149ZM5777.72,522.149C5810.61,511.764 5834.73,480.827 5834.73,444.697C5834.73,400.169 5798.09,363.527 5753.56,363.527C5753.24,363.527 5752.93,363.525 5752.62,363.519C5713.9,362.844 5677.95,384.082 5647.04,418.432C5622.56,445.627 5601.53,480.804 5584.98,522.149L5777.72,522.149ZM5435.11,522.149C5418.57,480.804 5397.53,445.627 5373.06,418.432C5342.14,384.082 5306.2,362.844 5267.48,363.519C5267.17,363.525 5266.85,363.527 5266.54,363.527C5222.01,363.527 5185.37,400.169 5185.37,444.697C5185.37,480.827 5209.49,511.764 5242.38,522.149L5435.11,522.149Z" style="fill:rgb(55,48,163);"/>
                </g>
                <g transform="matrix(1.13127,0,0,1.13127,-5509.67,1122.25)">
                    <path d="M5279.11,853.503L6301.76,853.503L6301.76,1633.88C6301.76,1714.03 6235.82,1779.98 6155.67,1779.98L5425.21,1779.98C5345.06,1779.98 5279.11,1714.03 5279.11,1633.88L5279.11,853.503ZM5667.48,1127.67C5667.48,1084.6 5631.59,1049.63 5587.38,1049.63C5543.16,1049.63 5507.27,1084.6 5507.27,1127.67C5507.27,1170.74 5543.16,1205.71 5587.38,1205.71C5631.59,1205.71 5667.48,1170.74 5667.48,1127.67ZM5667.48,1505.81C5667.48,1462.74 5631.59,1427.77 5587.38,1427.77C5543.16,1427.77 5507.27,1462.74 5507.27,1505.81C5507.27,1548.88 5543.16,1583.85 5587.38,1583.85C5631.59,1583.85 5667.48,1548.88 5667.48,1505.81ZM5870.55,1316.74C5870.55,1273.67 5834.65,1238.7 5790.44,1238.7C5746.23,1238.7 5710.33,1273.67 5710.33,1316.74C5710.33,1359.81 5746.23,1394.78 5790.44,1394.78C5834.65,1394.78 5870.55,1359.81 5870.55,1316.74ZM6073.61,1129.73C6073.61,1085.52 6037.72,1049.63 5993.5,1049.63C5949.29,1049.63 5913.4,1085.52 5913.4,1129.73C5913.4,1173.94 5949.29,1209.84 5993.5,1209.84C6037.72,1209.84 6073.61,1173.94 6073.61,1129.73ZM6073.61,1505.81C6073.61,1462.74 6037.72,1427.77 5993.5,1427.77C5949.29,1427.77 5913.4,1462.74 5913.4,1505.81C5913.4,1548.88 5949.29,1583.85 5993.5,1583.85C6037.72,1583.85 6073.61,1548.88 6073.61,1505.81Z" style="fill:rgb(55,48,163);fill-rule:nonzero;"/>
                </g>
            </g>
        </g>
    </g>
</svg>
